<?xml version="1.0" encoding="UTF-8" standalone="no"?>
<svg
   width="24"
   height="24"
   viewBox="0 0 24 24"
   fill="none"
   stroke="currentColor"
   stroke-width="2"
   stroke-linecap="round"
   stroke-linejoin="round"
   class="lucide lucide-building2-icon lucide-building-2"
   version="1.1"
   id="svg7"
   sodipodi:docname="building-2.svg"
   inkscape:version="1.3 (0e150ed6c4, 2023-07-21)"
   xmlns:inkscape="http://www.inkscape.org/namespaces/inkscape"
   xmlns:sodipodi="http://sodipodi.sourceforge.net/DTD/sodipodi-0.dtd"
   xmlns="http://www.w3.org/2000/svg"
   xmlns:svg="http://www.w3.org/2000/svg">
  <defs
     id="defs7" />
  <sodipodi:namedview
     id="namedview7"
     pagecolor="#505050"
     bordercolor="#eeeeee"
     borderopacity="1"
     inkscape:showpageshadow="0"
     inkscape:pageopacity="0"
     inkscape:pagecheckerboard="0"
     inkscape:deskcolor="#d1d1d1"
     inkscape:zoom="34.625"
     inkscape:cx="12"
     inkscape:cy="12"
     inkscape:window-width="1920"
     inkscape:window-height="1009"
     inkscape:window-x="-8"
     inkscape:window-y="44"
     inkscape:window-maximized="1"
     inkscape:current-layer="svg7" />
  <path
     d="M6 22V4a2 2 0 0 1 2-2h8a2 2 0 0 1 2 2v18Z"
     id="path1" />
  <path
     d="M 8.4259928,1.9783394 4,1.9783394 c -1.1045695,0 -2,0.8954305 -2,2 V 20 c 0,1.104569 0.8954305,2 2,2 h 2"
     id="path2"
     sodipodi:nodetypes="cssssc" />
  <path
     d="m 16.209386,2.0108303 h 3.64621 c 1.104569,0 1.990025,0.8954756 2,2 L 22,20 c 0.01,1.104524 -0.895431,2 -2,2 h -2"
     id="path3"
     sodipodi:nodetypes="cssssc" />
  <path
     d="M10 6h4"
     id="path4" />
  <path
     d="M10 10h4"
     id="path5" />
  <path
     d="M10 14h4"
     id="path6" />
  <path
     d="M10 18h4"
     id="path7" />
</svg>
